<?xml version="1.0" encoding="UTF-8"?>
<!DOCTYPE svg PUBLIC "-//W3C//DTD SVG 1.1//EN" "http://www.w3.org/Graphics/SVG/1.1/DTD/svg11.dtd">
<!-- Creator: CorelDRAW -->
<svg xmlns="http://www.w3.org/2000/svg" xml:space="preserve" width="591px" height="591px" version="1.1" style="shape-rendering:geometricPrecision; text-rendering:geometricPrecision; image-rendering:optimizeQuality; fill-rule:evenodd; clip-rule:evenodd"
viewBox="0 0 69 69"
 xmlns:xlink="http://www.w3.org/1999/xlink"
 xmlns:xodm="http://www.corel.com/coreldraw/odm/2003">
 <defs>
  <style type="text/css">
   <![CDATA[
    .fil0 {fill:black}
   ]]>
  </style>
 </defs>
 <g id="Слой_x0020_1">
  <metadata id="CorelCorpID_0Corel-Layer"/>
  <g id="_2594998660960">
   <path class="fil0" d="M0 34l0 28c0,2 2,5 3,6 1,1 3,2 4,2l28 0c1,0 2,0 3,-1 1,0 1,-1 2,-1 2,-1 3,-4 3,-5l0 -17c0,-3 -4,-3 -5,-1 -1,1 0,2 0,3l0 14c0,1 0,2 -1,3 -1,1 -1,1 -2,1l-26 0c-2,0 -3,-1 -3,-3l0 -26c0,-3 2,-3 4,-3l14 0c2,0 4,0 4,-3 0,-1 -1,-3 -3,-3l-17 0c-1,0 -2,0 -3,1 0,0 -1,0 -1,1 -2,1 -3,4 -3,6z"/>
   <path class="fil0" d="M44 13c0,1 0,2 1,3 1,1 2,0 3,0l-28 28c0,-1 0,-2 0,-3 -1,-2 -5,-1 -5,1l0 9c0,1 1,2 2,2l9 0c1,0 2,-1 2,-2 0,-1 0,-2 -1,-3 -1,-1 -2,0 -3,0l28 -28c0,1 0,2 0,3 1,2 5,1 5,-1l0 -9c0,-1 -1,-2 -2,-2l-9 0c-1,0 -2,1 -2,2z"/>
   <path class="fil0" d="M0 10l0 8c0,1 1,2 2,2l1 0c1,0 2,-1 2,-2 1,-4 -2,-12 5,-13 2,0 7,0 9,0 1,0 2,-1 2,-2l0 -1c0,-1 -1,-2 -2,-2l-8 0c-5,0 -10,5 -10,10z"/>
   <path class="fil0" d="M48 2l0 1c0,1 1,2 2,2 3,0 8,-1 10,1 4,2 2,8 3,13 0,1 1,2 2,2l1 0c1,0 2,-1 2,-2l0 -8c0,-3 -2,-6 -3,-7 -1,-1 -4,-3 -7,-3l-8 0c-1,0 -2,1 -2,2z"/>
   <path class="fil0" d="M48 66l0 1c0,1 1,2 2,2l8 0c5,0 10,-5 10,-10l0 -8c0,-1 -1,-2 -2,-2l-1 0c-1,0 -2,1 -2,2 -1,4 2,12 -5,13 -2,0 -7,0 -9,0 -1,0 -2,1 -2,2z"/>
   <path class="fil0" d="M26 2l0 1c0,1 1,2 2,2l12 0c1,0 2,-1 2,-2l0 -1c0,-1 -1,-2 -2,-2l-12 0c-1,0 -2,1 -2,2z"/>
   <path class="fil0" d="M63 29l0 12c0,1 1,2 2,2l1 0c1,0 2,-1 2,-2l0 -12c0,-1 -1,-2 -2,-2l-1 0c-1,0 -2,1 -2,2z"/>
  </g>
 </g>
</svg>
