<?xml version="1.0" encoding="UTF-8"?>
<!DOCTYPE svg PUBLIC "-//W3C//DTD SVG 1.1//EN" "http://www.w3.org/Graphics/SVG/1.1/DTD/svg11.dtd">
<!-- Creator: CorelDRAW -->
<svg xmlns="http://www.w3.org/2000/svg" xml:space="preserve" width="591px" height="591px" version="1.1" style="shape-rendering:geometricPrecision; text-rendering:geometricPrecision; image-rendering:optimizeQuality; fill-rule:evenodd; clip-rule:evenodd"
viewBox="0 0 65 65"
 xmlns:xlink="http://www.w3.org/1999/xlink"
 xmlns:xodm="http://www.corel.com/coreldraw/odm/2003">
 <defs>
  <style type="text/css">
   <![CDATA[
    .fil0 {fill:#FEFEFE}
   ]]>
  </style>
 </defs>
 <g id="Слой_x0020_1">
  <metadata id="CorelCorpID_0Corel-Layer"/>
  <g id="_2594947481136">
   <path class="fil0" d="M0 32l0 26c0,2 1,4 3,6 1,1 3,1 4,1l26 0c1,0 2,0 3,-1 1,0 1,-1 2,-1 1,-1 3,-3 3,-5l0 -16c0,-3 -3,-3 -5,-1 -1,1 0,2 0,3l0 13c0,1 0,2 -1,3 -1,1 -1,1 -2,1l-24 0c-2,0 -3,-1 -3,-3l0 -24c0,-2 2,-3 4,-3l13 0c2,0 4,0 4,-3 0,-1 -1,-2 -2,-2l-16 0c-1,0 -2,0 -3,1 0,0 -1,0 -1,1 -2,1 -3,3 -3,6z"/>
   <path class="fil0" d="M42 12c0,1 0,2 1,3 1,0 2,0 3,0l-26 26c0,-1 0,-2 0,-3 -1,-2 -5,-1 -5,1l0 8c0,1 1,2 2,2l8 0c1,0 2,-1 2,-2 0,-1 0,-2 -1,-3 -1,0 -2,0 -3,0l26 -26c0,1 0,2 0,3 1,2 5,1 5,-1l0 -8c0,-1 -1,-2 -2,-2l-8 0c-1,0 -2,1 -2,2z"/>
   <path class="fil0" d="M0 10l0 8c0,1 1,2 2,2l1 0c1,0 2,-1 2,-2 1,-4 -2,-12 4,-13 2,0 6,0 8,0 1,0 2,-1 2,-2l0 -1c0,-1 -1,-2 -2,-2l-8 0c-5,0 -10,5 -10,10z"/>
   <path class="fil0" d="M45 2l0 1c0,1 1,2 2,2 3,0 8,-1 10,1 4,2 2,7 3,12 0,1 1,2 2,2l1 0c1,0 2,-1 2,-2l0 -8c0,-3 -2,-5 -3,-7 -1,-1 -4,-3 -7,-3l-8 0c-1,0 -2,1 -2,2z"/>
   <path class="fil0" d="M45 62l0 1c0,1 1,2 2,2l8 0c5,0 10,-5 10,-10l0 -8c0,-1 -1,-2 -2,-2l-1 0c-1,0 -2,1 -2,2 -1,4 2,12 -4,13 -2,0 -6,0 -8,0 -1,0 -2,1 -2,2z"/>
   <path class="fil0" d="M25 2l0 1c0,1 1,2 2,2l11 0c1,0 2,-1 2,-2l0 -1c0,-1 -1,-2 -2,-2l-11 0c-1,0 -2,1 -2,2z"/>
   <path class="fil0" d="M60 27l0 11c0,1 1,2 2,2l1 0c1,0 2,-1 2,-2l0 -11c0,-1 -1,-2 -2,-2l-1 0c-1,0 -2,1 -2,2z"/>
  </g>
 </g>
</svg>
