<?xml version="1.0" encoding="UTF-8"?>
<!DOCTYPE svg PUBLIC "-//W3C//DTD SVG 1.1//EN" "http://www.w3.org/Graphics/SVG/1.1/DTD/svg11.dtd">
<!-- Creator: CorelDRAW -->
<svg xmlns="http://www.w3.org/2000/svg" xml:space="preserve" width="591px" height="591px" version="1.1" style="shape-rendering:geometricPrecision; text-rendering:geometricPrecision; image-rendering:optimizeQuality; fill-rule:evenodd; clip-rule:evenodd"
viewBox="0 0 31 31"
 xmlns:xlink="http://www.w3.org/1999/xlink"
 xmlns:xodm="http://www.corel.com/coreldraw/odm/2003">
 <defs>
  <style type="text/css">
   <![CDATA[
    .fil0 {fill:#FEFEFE}
   ]]>
  </style>
 </defs>
 <g id="Слой_x0020_1">
  <metadata id="CorelCorpID_0Corel-Layer"/>
  <g id="_2595050435520">
   <path class="fil0" d="M2 18c0,0 3,2 3,2 2,1 4,0 6,1 0,0 1,1 1,1 0,0 1,1 1,1 1,1 0,3 0,4 0,0 0,1 0,1l-2 -1c-2,-1 -4,-2 -5,-3 -1,-1 -2,-2 -2,-3 0,-1 -1,-1 -1,-2 0,0 -1,-2 -1,-2zm4 -12c0,0 1,2 1,2 2,3 2,3 5,4 2,0 1,1 2,3 0,1 1,3 1,4 1,1 2,2 4,2 1,0 2,0 3,-1 2,-1 1,-3 3,-4l3 -1c0,5 -3,9 -7,12 -1,0 -2,1 -3,1 -1,0 -2,0 -3,0 0,-1 1,-3 1,-3 0,-1 0,-2 -1,-3l-1 -1c-1,-1 -2,-2 -4,-3 -2,-1 -3,0 -5,-1 0,0 -1,0 -1,-1 0,0 -1,0 -1,-1l-2 -1 0 -2c0,-1 1,-2 1,-3 1,-1 1,-2 2,-3 0,0 1,-1 2,-2zm9 25c2,0 4,0 5,-1 0,0 1,0 1,0 3,-2 5,-3 7,-6 2,-3 2,-6 2,-10 0,-1 0,-2 -1,-3 0,-1 0,-1 -1,-2 -1,0 -2,1 -2,1 0,0 1,2 1,4l-3 1c-2,1 -3,1 -4,3 -1,1 -1,2 -2,2 -1,0 -2,-1 -2,-1 0,0 0,-1 0,-1 0,0 0,-1 0,-1 0,0 0,-1 0,-1 0,-1 -1,-2 -2,-3 -1,-1 -1,-1 -2,-1 -1,0 -2,0 -2,-1 0,0 -1,-2 -1,-2 0,0 0,-1 -1,-1 0,0 0,-1 -1,-1 0,0 0,0 0,0 1,0 1,0 1,-1 1,0 1,-1 2,-1 1,0 2,0 2,0 0,0 1,0 1,0 1,0 1,-2 0,-2 -1,0 -4,1 -5,1 -2,1 -4,2 -5,3l-1 1c-2,2 -3,5 -4,8 0,1 0,2 0,3l0 3c0,2 1,4 2,5 1,1 2,3 4,4 0,0 0,0 1,0 1,1 1,1 3,1 1,1 3,1 5,1 1,0 1,0 2,0z"/>
   <path class="fil0" d="M23 10l-2 -2c-1,-1 -1,-2 -1,-3 0,-1 1,-2 3,-2 1,0 3,1 3,3 0,1 -1,2 -1,3 0,0 0,1 -1,1 0,0 0,0 0,1 0,0 0,0 0,0zm-5 -5c0,2 2,5 4,7 1,1 2,0 3,-1 0,0 0,0 0,0 0,0 0,0 0,0l1 -1c1,-2 3,-4 1,-6 0,-1 -1,-1 -1,-1 -3,-3 -8,-1 -8,3z"/>
  </g>
 </g>
</svg>
