<?xml version="1.0" encoding="UTF-8"?>
<!DOCTYPE svg PUBLIC "-//W3C//DTD SVG 1.1//EN" "http://www.w3.org/Graphics/SVG/1.1/DTD/svg11.dtd">
<!-- Creator: CorelDRAW -->
<svg xmlns="http://www.w3.org/2000/svg" xml:space="preserve" width="591px" height="590px" version="1.1" style="shape-rendering:geometricPrecision; text-rendering:geometricPrecision; image-rendering:optimizeQuality; fill-rule:evenodd; clip-rule:evenodd"
viewBox="0 0 36 36"
 xmlns:xlink="http://www.w3.org/1999/xlink"
 xmlns:xodm="http://www.corel.com/coreldraw/odm/2003">
 <defs>
  <style type="text/css">
   <![CDATA[
    .fil0 {fill:#FEFEFE}
   ]]>
  </style>
 </defs>
 <g id="Слой_x0020_1">
  <metadata id="CorelCorpID_0Corel-Layer"/>
  <g id="_2557851989888">
   <path class="fil0" d="M28 32l0 -3c0,-1 1,-1 1,0l0 3c0,1 -1,1 -1,0zm-2 0l0 -3c0,-1 1,-1 1,0l0 3c0,1 -1,1 -1,0zm-2 0l0 -3c0,-1 1,-1 1,0l0 3c0,1 -1,1 -1,0zm-2 0l0 -3c0,-1 1,-1 1,0l0 3c0,1 -1,1 -1,0zm-2 0l0 -3c0,-1 1,-1 1,0l0 3c0,1 -1,1 -1,0zm-2 0l0 -3c0,-1 1,-1 1,0l0 3c0,1 -1,1 -1,0zm-2 0l0 -3c0,-1 1,-1 1,0l0 3c0,1 -1,1 -1,0zm-2 0l0 -3c0,-1 1,-1 1,0l0 3c0,1 -1,1 -1,0zm-2 0l0 -3c0,-1 1,-1 1,0l0 3c0,1 -1,1 -1,0zm-2 0l0 -3c0,-1 1,-1 1,0l0 3c0,1 -1,1 -1,0zm23 -2c0,-1 1,-1 1,0 0,1 -1,1 -1,0zm-25 0c0,-1 1,-1 1,0 0,1 -1,1 -1,0zm-5 -4l0 8c0,1 1,2 2,2l33 0c1,0 2,-1 2,-2l0 -8c0,-1 -1,-2 -2,-2l-33 0c-1,0 -2,1 -2,2z"/>
   <path class="fil0" d="M0 1l0 23c0,1 2,0 2,0l2 -1 0 1 8 0 -2 -2c0,0 0,0 0,-1l1 -4c-1,0 -1,0 -2,-1 0,0 -1,-1 -1,-1 -1,0 -2,1 -3,2 -1,1 -1,2 -1,4 -1,0 -1,0 -2,1l-2 1 0 -21c1,0 1,0 2,1 1,0 1,0 2,1 1,0 1,0 2,1 1,0 1,0 2,0 3,1 6,1 9,1 3,0 7,0 9,-1 2,0 4,-1 6,-2 0,0 1,0 1,0 0,0 1,0 1,0l0 21c0,0 -1,-1 -2,-1 -1,0 -3,-1 -3,-1 -1,0 -1,1 0,1 1,0 1,0 2,1l4 1c0,0 1,0 1,-1l0 -23c0,-1 -2,0 -2,0 -5,2 -10,3 -16,3 -2,0 -3,0 -5,0 -1,0 -3,-1 -4,-1 -1,0 -1,0 -2,-1 -1,0 -1,0 -2,-1 -1,0 -1,0 -2,-1 -1,0 -2,-1 -2,0z"/>
   <path class="fil0" d="M14 18c0,1 0,1 0,2 0,3 1,2 0,3 -1,0 -1,1 -1,1 0,0 0,0 0,0l8 0 0 -3c2,0 4,1 5,1 0,0 1,-1 0,-1 -1,0 -4,0 -5,0 0,-2 -3,-3 -4,-3 0,0 -1,2 -3,2z"/>
   <path class="fil0" d="M26 12l0 4 -4 0 4 -4zm-6 -1l0 6c0,0 0,1 1,1l6 0c0,0 1,0 1,-1l0 -6c0,0 0,-1 -1,-1l-6 0c0,0 -1,0 -1,1z"/>
   <path class="fil0" d="M10 13c0,-3 3,-4 5,-2 2,2 0,6 -3,5 -1,0 -2,-2 -2,-3zm-1 0c0,1 0,1 0,2 1,2 2,2 4,2 2,0 4,-2 4,-4 0,-1 0,-1 0,-2 0,0 0,-1 -1,-1 0,0 -1,-1 -1,-1 -1,-1 -3,-1 -4,0 -1,1 -2,2 -2,4z"/>
   <path class="fil0" d="M33 6l0 3 -3 0 3 -3zm-4 -1l0 5c0,0 0,1 1,1l5 0c0,0 1,0 1,-1l0 -5c0,0 0,-1 -1,-1l-5 0c0,0 -1,0 -1,1z"/>
   <path class="fil0" d="M12 22l1 1c0,0 1,-1 1,-1 0,0 0,-1 0,-1l0 -3c-1,0 -1,0 -1,1l0 3z"/>
   <path class="fil0" d="M2 8c0,0 0,1 1,1l3 0c1,0 1,-1 0,-1l-3 0c0,0 -1,0 -1,1z"/>
   <path class="fil0" d="M2 6c0,0 0,1 1,1l3 0c1,0 1,-1 0,-1l-3 0c0,0 -1,0 -1,1z"/>
  </g>
 </g>
</svg>
