<?xml version="1.0" encoding="UTF-8"?>
<!DOCTYPE svg PUBLIC "-//W3C//DTD SVG 1.1//EN" "http://www.w3.org/Graphics/SVG/1.1/DTD/svg11.dtd">
<!-- Creator: CorelDRAW -->
<svg xmlns="http://www.w3.org/2000/svg" xml:space="preserve" width="591px" height="598px" version="1.1" style="shape-rendering:geometricPrecision; text-rendering:geometricPrecision; image-rendering:optimizeQuality; fill-rule:evenodd; clip-rule:evenodd"
viewBox="0 0 27 27"
 xmlns:xlink="http://www.w3.org/1999/xlink"
 xmlns:xodm="http://www.corel.com/coreldraw/odm/2003">
 <defs>
  <style type="text/css">
   <![CDATA[
    .fil0 {fill:#FEFEFE}
   ]]>
  </style>
 </defs>
 <g id="Слой_x0020_1">
  <metadata id="CorelCorpID_0Corel-Layer"/>
  <g id="_2558502884592">
   <path class="fil0" d="M6 21l1 0c0,0 2,-1 2,-1l2 3c0,0 1,2 1,2 0,0 0,0 0,1 0,0 -2,1 -2,1 0,0 -1,-1 -1,-1l-3 -4zm2 -10c0,0 0,0 1,0 1,0 2,-1 2,-2 0,0 1,-1 1,-2 0,0 1,2 1,2l3 8c-1,0 -3,0 -4,0 0,0 -1,0 -1,0 0,0 -1,0 -1,0 0,0 0,0 0,0 -1,-2 -2,-4 -3,-6 0,0 0,0 0,0zm9 -2c1,0 1,0 1,1 0,0 0,1 0,1 0,0 0,1 0,1l-1 -3zm-5 -4c0,1 1,1 0,2 0,0 -1,1 -1,1l-1 1c-1,1 -4,2 -6,3 -1,0 -1,0 -2,1 -1,1 -1,2 -1,3l1 3c0,1 1,1 1,1 0,0 1,1 2,1 0,0 1,0 1,0 0,0 0,1 0,1 0,1 3,5 3,5 1,1 2,0 3,0 1,0 1,-1 1,-1 0,-1 -1,-2 -2,-3 -1,-1 -1,-2 -2,-3 0,0 1,-1 2,-1 1,0 3,-1 5,0 0,0 0,0 1,1 1,1 3,0 3,-1 0,-1 0,-1 -1,-2l-1 -2c0,-1 0,0 0,-1 1,-2 -1,-4 -3,-4 0,0 0,0 0,-1l-1 -2c0,-1 -1,-2 -2,-2 -1,0 -2,1 -2,2z"/>
   <path class="fil0" d="M19 2c0,0 0,-1 1,-1 0,0 0,0 1,0 0,0 0,0 1,0 0,0 1,1 0,2 -1,1 -1,1 -2,0 0,0 0,-1 0,-1zm-2 2c0,1 1,1 1,1 0,0 0,1 0,1 0,0 0,0 1,0 0,0 1,0 1,0l1 0c0,0 1,0 1,0 1,0 1,-2 2,-3 0,-1 1,-2 -1,-2l-4 -1c-2,0 -2,0 -2,3 0,0 0,1 0,1z"/>
   <path class="fil0" d="M23 15c0,0 0,-1 0,-1 0,0 0,-1 0,-1 0,0 1,1 1,1 0,0 -1,1 -1,1zm-3 0c0,1 0,1 1,1 -1,2 1,1 2,1l2 1c0,0 1,0 1,0 1,0 1,-1 1,-2 1,-3 1,-2 -4,-4 -1,-1 -2,0 -2,1l-1 1c0,0 0,1 0,1z"/>
   <path class="fil0" d="M23 8c0,0 0,0 0,0 1,0 1,0 2,0 0,0 1,1 0,1 0,0 -2,0 -2,0zm-1 -1l0 2c0,0 0,1 1,1 0,1 0,1 1,0 0,0 0,0 0,0 1,0 3,0 3,-1l0 -2c0,0 0,-1 -1,-1l-3 0c0,0 -1,0 -1,1z"/>
  </g>
 </g>
</svg>
