<?xml version="1.0" encoding="UTF-8"?>
<!DOCTYPE svg PUBLIC "-//W3C//DTD SVG 1.1//EN" "http://www.w3.org/Graphics/SVG/1.1/DTD/svg11.dtd">
<!-- Creator: CorelDRAW -->
<svg xmlns="http://www.w3.org/2000/svg" xml:space="preserve" width="591px" height="591px" version="1.1" style="shape-rendering:geometricPrecision; text-rendering:geometricPrecision; image-rendering:optimizeQuality; fill-rule:evenodd; clip-rule:evenodd"
viewBox="0 0 43 43"
 xmlns:xlink="http://www.w3.org/1999/xlink"
 xmlns:xodm="http://www.corel.com/coreldraw/odm/2003">
 <defs>
  <style type="text/css">
   <![CDATA[
    .fil0 {fill:#FEFEFE}
   ]]>
  </style>
 </defs>
 <g id="Слой_x0020_1">
  <metadata id="CorelCorpID_0Corel-Layer"/>
  <g id="_2594163418032">
   <path class="fil0" d="M22 40l-1 -4c0,0 0,-1 0,-1 1,0 2,-1 4,-2l3 -1c0,0 1,0 1,-1 0,0 0,1 0,2 0,1 0,1 0,2 0,1 0,1 -1,1 0,0 -1,1 -1,1l-5 3zm-12 -15c0,-1 0,-1 0,-2l1 -2 11 11c-1,0 -3,1 -4,1 0,0 -2,-1 -2,-2l-5 -5c0,0 -1,-1 -1,-1zm-2 -3c-1,0 -4,-1 -5,-1l4 -6c0,-1 0,-1 1,-1 0,0 1,0 2,0 1,0 1,0 2,0l-1 2c-1,2 -2,3 -2,5 0,0 0,1 0,1zm16 9l-12 -12c1,-1 1,-2 2,-3 0,-1 1,-1 1,-1l2 -2c0,0 1,-1 1,-1l1 -1c0,0 0,0 1,-1 5,-4 11,-6 18,-6 0,0 2,0 2,0 0,0 0,1 0,2 0,4 -1,8 -2,11 -1,2 -2,4 -3,6l-3 4c0,0 0,0 -1,1 0,0 0,0 -1,1 -3,2 -3,3 -6,4zm-11 -20l-5 0c-2,0 -2,0 -4,2 -1,1 -1,2 -2,3 0,1 -2,3 -2,4 0,3 2,3 5,3l2 0c0,0 0,0 0,1 0,2 1,2 2,3l5 5c1,1 2,2 4,2 0,0 0,0 1,0l0 2c0,2 0,5 3,5 1,0 3,-1 4,-2 1,-1 2,-2 3,-2 2,-1 2,-2 2,-5l0 -4 1 -1c1,-1 2,-2 3,-3 0,0 0,0 1,-1l2 -2c3,-5 5,-11 5,-16l0 -2c0,-2 -1,-4 -4,-4 -4,0 -6,0 -10,1 -3,1 -4,1 -6,2 -2,1 -4,2 -5,3 0,0 0,0 0,0l-4 4c0,0 0,0 0,1z"/>
   <path class="fil0" d="M25 13c0,-1 0,-2 1,-3 1,-1 2,-1 3,-1 2,0 3,2 3,3 0,1 0,2 -1,3 -3,2 -6,0 -6,-3zm10 0c0,-6 -6,-8 -10,-5 -2,1 -3,4 -2,6 0,1 1,2 2,3 1,1 2,1 3,2 2,1 5,0 6,-2 1,-1 1,-2 1,-4z"/>
   <path class="fil0" d="M0 41c0,1 0,1 1,1 1,0 1,-1 1,-1l6 -6c0,0 2,-2 2,-2 0,-1 0,-1 -1,-1 -1,0 -2,2 -2,2l-6 6c0,0 -1,1 -1,1z"/>
   <path class="fil0" d="M0 34c0,1 1,1 1,1 1,0 3,-3 3,-3 0,0 1,-1 2,-2 0,-1 0,-2 -1,-2 -1,0 -2,2 -3,2 -1,1 -2,2 -2,3z"/>
   <path class="fil0" d="M7 41c0,0 0,1 0,1 0,0 0,0 1,0l0 0c1,0 1,-1 2,-1l3 -3c1,-1 1,-1 1,-2 0,-1 -1,-1 -2,-1 0,0 -3,3 -3,3 0,0 -1,1 -1,2z"/>
  </g>
 </g>
</svg>
