<?xml version="1.0" encoding="UTF-8"?>
<!DOCTYPE svg PUBLIC "-//W3C//DTD SVG 1.1//EN" "http://www.w3.org/Graphics/SVG/1.1/DTD/svg11.dtd">
<!-- Creator: CorelDRAW -->
<svg xmlns="http://www.w3.org/2000/svg" xml:space="preserve" width="591px" height="591px" version="1.1" style="shape-rendering:geometricPrecision; text-rendering:geometricPrecision; image-rendering:optimizeQuality; fill-rule:evenodd; clip-rule:evenodd"
viewBox="0 0 52 52"
 xmlns:xlink="http://www.w3.org/1999/xlink"
 xmlns:xodm="http://www.corel.com/coreldraw/odm/2003">
 <defs>
  <style type="text/css">
   <![CDATA[
    .fil0 {fill:#FEFEFE}
   ]]>
  </style>
 </defs>
 <g id="Слой_x0020_1">
  <metadata id="CorelCorpID_0Corel-Layer"/>
  <g id="_2558507753216">
   <path class="fil0" d="M3 46l0 -32c0,-1 1,-2 2,-2l8 0 0 4c0,2 2,5 5,5l15 0c2,0 5,-2 5,-5l0 -4 8 0c1,0 2,1 2,2l0 32c0,1 -1,2 -2,2l-41 0c-1,0 -2,-1 -2,-2zm14 -31l0 -3c3,0 1,0 3,1 0,0 1,1 2,1l8 0c2,0 2,-2 3,-2l2 0c0,3 1,5 -2,5l-13 0c-1,0 -2,-1 -2,-2zm5 -12l7 0 0 7 -7 0 0 -7zm-3 0l0 5 -14 0c-2,0 -5,2 -5,5l0 34c0,2 2,5 5,5l42 0c2,0 5,-2 5,-5l0 -34c0,-2 -2,-5 -5,-5l-14 0 0 -6c0,-1 -2,-3 -3,-3l-7 0c-2,0 -3,2 -3,3z"/>
   <path class="fil0" d="M14 31c0,0 0,-1 0,-1 1,-3 6,-3 7,1 0,1 0,2 -1,2 -2,2 -5,2 -6,-2zm-3 -1c0,2 0,3 1,4 0,1 1,2 2,2 0,0 -1,1 -2,1 -1,1 -2,2 -3,3 -1,1 -1,1 -1,3 0,1 1,2 2,2 2,0 2,-3 6,-5 4,-1 8,0 10,3 1,1 1,2 2,2 1,0 2,-1 2,-2 0,-1 -1,-2 -2,-3 -1,-1 -2,-2 -3,-2 0,0 -1,0 -1,-1 0,0 -1,0 -1,-1 1,0 3,-3 3,-5l0 -1c0,-3 -3,-6 -6,-6l-1 0c-3,0 -6,3 -6,6z"/>
   <path class="fil0" d="M29 27c0,1 1,2 2,2l13 0c1,0 2,-1 2,-2 0,-1 -1,-2 -2,-2l-13 0c-1,0 -2,1 -2,2z"/>
   <path class="fil0" d="M31 34c0,1 1,2 2,2l11 0c1,0 2,-1 2,-2 0,-1 -1,-2 -2,-2l-11 0c-1,0 -2,1 -2,2z"/>
   <path class="fil0" d="M33 41c0,1 1,2 2,2l9 0c1,0 2,-1 2,-2 0,-1 -1,-2 -2,-2l-9 0c-1,0 -2,1 -2,2z"/>
  </g>
 </g>
</svg>
