<svg width="55" height="54" viewBox="0 0 55 54" fill="none" xmlns="http://www.w3.org/2000/svg">
<g id="Icon">
<g id="Group">
<path id="Vector" fill-rule="evenodd" clip-rule="evenodd" d="M30.4382 11.6341C30.1079 11.3042 29.7776 11.1943 29.2271 11.1943H22.1369C21.2562 11.0843 14.6063 9.98469 14.254 3.3209C14.1439 2.00134 13.153 1.09964 11.9199 1.09964C10.7089 1.2096 9.69599 2.19927 9.80609 3.43087C10.2465 10.7324 15.6852 13.9434 19.7808 15.065V43.1937C19.7808 44.4033 20.7717 45.4149 22.0048 45.4149C23.2379 45.4149 24.2288 44.4252 24.2288 43.1937V32.1093H26.4527V43.1937C26.4527 44.4033 27.4436 45.4149 28.6767 45.4149C29.9097 45.4149 30.9006 44.4252 30.9006 43.1937V19.7055C31.8915 22.2566 32.7943 25.3576 33.1246 27.6888C33.3448 28.8984 34.4457 29.6901 35.6788 29.4702C36.9119 29.2503 37.6826 28.1507 37.4624 26.9191C37.2422 24.9177 35.2384 14.7351 30.4822 11.6341H30.4382Z" fill="white"/>
<path id="Vector_2" fill-rule="evenodd" clip-rule="evenodd" d="M29.7776 4.42053C29.7776 1.97934 27.7959 0 25.3517 0C22.9076 0 20.9258 1.97934 20.9258 4.42053C20.9258 6.86172 22.9076 8.84106 25.3517 8.84106C27.7959 8.84106 29.7776 6.86172 29.7776 4.42053Z" fill="white"/>
<path id="Vector_3" fill-rule="evenodd" clip-rule="evenodd" d="M31.9795 43.1936C31.9795 44.975 30.5483 46.5145 28.6546 46.5145C26.761 46.5145 25.3297 44.975 25.3297 43.1936C25.3297 44.975 23.8985 46.5145 22.0048 46.5145C20.1111 46.5145 18.6799 44.975 18.6799 43.1936V35.4522L14.8045 53.1783H35.877L32.0016 35.4522V43.1936H31.9795Z" fill="#00D8FF"/>
<path id="Vector_4" fill-rule="evenodd" clip-rule="evenodd" d="M14.254 35.6501C14.254 36.3099 14.6944 36.7498 15.355 36.7498C16.0155 36.7498 16.4559 36.3099 16.4559 35.6501V28.3486C16.4559 27.6888 16.0155 27.2489 15.355 27.2489C14.6944 27.2489 14.254 27.6888 14.254 28.3486V29.1183C13.7035 29.1183 13.153 29.2283 12.5805 29.1183C11.5897 29.0084 10.6869 28.8984 10.0263 28.6785C9.95289 28.6785 9.87948 28.6418 9.80608 28.5685V28.2386C9.80608 27.5788 9.36569 27.139 8.70511 27.139C8.04453 27.139 7.60415 27.5788 7.60415 28.2386V28.8984C6.94357 29.0084 6.1729 29.1183 5.38021 29.0084C4.60953 28.8984 3.70673 28.7884 3.15625 28.5685V28.2386C3.15625 27.5788 2.71586 27.139 2.05528 27.139C1.3947 27.139 0.954315 27.5788 0.954315 28.2386V44.6232C0.954315 45.2829 1.3947 45.7228 2.05528 45.7228C2.71586 45.7228 3.15625 45.2829 3.15625 44.6232V29.6681C3.81683 29.7781 4.58751 29.7781 5.38021 29.7781C6.15088 29.6681 7.05366 29.4482 7.60415 29.3382V39.081C7.60415 39.7408 8.04453 40.1806 8.70511 40.1806C9.36569 40.1806 9.80608 39.7408 9.80608 39.081V29.7781C10.5768 29.8881 11.5897 29.998 12.5805 29.8881C13.131 29.8881 13.6815 29.7781 14.254 29.6681V35.6501Z" fill="#00D8FF"/>
<path id="Vector_5" fill-rule="evenodd" clip-rule="evenodd" d="M0.932302 47.6142C0.932302 48.2739 1.37269 48.7138 2.03327 48.7138C2.69385 48.7138 3.13424 48.2739 3.13424 47.6142V46.5145H0.910278V47.6142H0.932302Z" fill="#00D8FF"/>
<path id="Vector_6" fill-rule="evenodd" clip-rule="evenodd" d="M7.58214 42.094C7.58214 42.7538 8.02253 43.1937 8.68311 43.1937C9.34369 43.1937 9.78408 42.7538 9.78408 42.094V40.9944H7.56012V42.094H7.58214Z" fill="#00D8FF"/>
<path id="Vector_7" fill-rule="evenodd" clip-rule="evenodd" d="M16.4559 38.7511V37.6515H14.232V38.7511C14.232 39.4109 14.6724 39.8508 15.3329 39.8508C15.9935 39.8508 16.4339 39.4109 16.4339 38.7511H16.4559Z" fill="#00D8FF"/>
<path id="Vector_8" fill-rule="evenodd" clip-rule="evenodd" d="M53.0521 27.249C52.3915 27.249 51.9511 27.6888 51.9511 28.3486V28.6785C51.4006 28.8984 50.6299 29.1183 49.7272 29.1183C48.9565 29.2283 48.0537 29.1183 47.5032 29.0084V28.3486C47.5032 27.6888 47.0628 27.249 46.4022 27.249C45.7416 27.249 45.3013 27.6888 45.3013 28.3486V28.6785C45.2279 28.6785 45.1545 28.7151 45.0811 28.7885C44.4205 29.0084 43.4076 29.2283 42.5268 29.2283H40.8534V28.4586C40.8534 27.7988 40.413 27.3589 39.7524 27.3589C39.0918 27.3589 38.6514 27.7988 38.6514 28.4586V35.6502C38.6514 36.3099 39.0918 36.7498 39.7524 36.7498C40.413 36.7498 40.8534 36.3099 40.8534 35.6502V29.5582C41.4038 29.6682 41.9543 29.7781 42.5268 29.7781C43.5177 29.8881 44.5306 29.7781 45.3013 29.6682V38.9711C45.3013 39.6308 45.7416 40.0707 46.4022 40.0707C47.0628 40.0707 47.5032 39.6308 47.5032 38.9711V29.2283C48.0537 29.4482 48.9345 29.6682 49.7272 29.6682C50.4978 29.7781 51.2685 29.6682 51.9511 29.5582V44.6232C51.9511 45.283 52.3915 45.7228 53.0521 45.7228C53.7126 45.7228 54.153 45.283 54.153 44.6232V28.3486C54.153 27.6888 53.7126 27.249 53.0521 27.249Z" fill="#00D8FF"/>
<path id="Vector_9" fill-rule="evenodd" clip-rule="evenodd" d="M51.9511 47.6142C51.9511 48.2739 52.3915 48.7138 53.0521 48.7138C53.7126 48.7138 54.153 48.2739 54.153 47.6142V46.5145H51.9291V47.6142H51.9511Z" fill="#00D8FF"/>
<path id="Vector_10" fill-rule="evenodd" clip-rule="evenodd" d="M45.3013 42.094C45.3013 42.7538 45.7416 43.1937 46.4022 43.1937C47.0628 43.1937 47.5032 42.7538 47.5032 42.094V40.9944H45.2792V42.094H45.3013Z" fill="#00D8FF"/>
<path id="Vector_11" fill-rule="evenodd" clip-rule="evenodd" d="M38.6294 38.7511C38.6294 39.4109 39.0698 39.8508 39.7304 39.8508C40.3909 39.8508 40.8313 39.4109 40.8313 38.7511V37.6515H38.6074V38.7511H38.6294Z" fill="#00D8FF"/>
</g>
</g>
</svg>
