<svg width="51" height="50" viewBox="0 0 51 50" fill="none" xmlns="http://www.w3.org/2000/svg">
<g id="Icon">
<g id="Group">
<path id="Vector" fill-rule="evenodd" clip-rule="evenodd" d="M16.9363 14.2214L13.0389 14.5293C11.9599 14.6172 10.9911 15.1891 10.3965 16.0908L5.90461 22.8865C5.4422 23.5683 5.37614 24.426 5.70643 25.1957C6.03672 25.9435 6.71932 26.4713 7.53404 26.6033L11.1012 27.1531C11.9379 22.7326 13.9417 18.312 16.9363 14.2434V14.2214Z" fill="white"/>
<path id="Vector_2" fill-rule="evenodd" clip-rule="evenodd" d="M25.4138 41.4263L25.9642 44.9891C26.0964 45.8029 26.6248 46.4846 27.3735 46.8145C27.6817 46.9465 28.012 47.0125 28.3423 47.0125C28.8047 47.0125 29.2671 46.8805 29.6635 46.6166L36.4675 42.1301C37.3703 41.5363 37.9428 40.5686 38.0308 39.491L38.3391 35.5983C34.2655 38.5893 29.8396 40.5906 25.4138 41.4263Z" fill="white"/>
<path id="Vector_3" fill-rule="evenodd" clip-rule="evenodd" d="M24.0705 38.9412C24.2027 38.9412 24.3128 38.9412 24.4449 38.9192C26.2945 38.6113 28.1001 38.0834 29.7956 37.4017L15.1307 22.7545C14.4481 24.47 13.9196 26.2514 13.6114 28.0988C13.4792 28.8245 13.7435 29.5723 14.2499 30.1001L22.4411 38.2814C22.8815 38.7212 23.454 38.9632 24.0705 38.9632V38.9412Z" fill="#00D8FF"/>
<path id="Vector_4" fill-rule="evenodd" clip-rule="evenodd" d="M46.9266 22.0068C50.5158 15.0791 50.6479 7.75554 50.4717 4.30269C50.4057 3.11508 49.4589 2.19139 48.2918 2.12541C47.7414 2.10341 47.0588 2.08142 46.3101 2.08142C42.4567 2.08142 36.3794 2.65323 30.5663 5.66623C25.9422 8.04144 19.8869 13.2977 16.3198 20.2034C16.3638 20.2254 16.4078 20.2694 16.4519 20.3134L32.2838 36.1261C32.2838 36.1261 32.3498 36.2141 32.3939 36.2581C39.3079 32.6953 44.5706 26.6473 46.9487 22.0288L46.9266 22.0068ZM31.6672 11.5823C34.2435 9.00913 38.4272 9.00913 40.9814 11.5823C42.2365 12.8359 42.9191 14.4853 42.9191 16.2447C42.9191 18.0041 42.2365 19.6536 40.9814 20.9072C39.7263 22.1607 38.0088 22.8425 36.3133 22.8425C34.6178 22.8425 32.9444 22.2047 31.6452 20.9072C30.3901 19.6536 29.7075 18.0041 29.7075 16.2447C29.7075 14.4853 30.3901 12.8359 31.6452 11.5823H31.6672Z" fill="white"/>
<path id="Vector_5" fill-rule="evenodd" clip-rule="evenodd" d="M33.5389 19.0158C35.0802 20.5553 37.5904 20.5553 39.1318 19.0158C39.8804 18.268 40.2988 17.2784 40.2988 16.2227C40.2988 15.1671 39.8804 14.1774 39.1318 13.4296C38.3831 12.6819 37.3482 12.264 36.3353 12.264C35.3224 12.264 34.3095 12.6599 33.5389 13.4296C32.7902 14.1774 32.3718 15.1671 32.3718 16.2227C32.3718 17.2784 32.7902 18.268 33.5389 19.0158Z" fill="white"/>
<path id="Vector_6" fill-rule="evenodd" clip-rule="evenodd" d="M6.85144 39.1171C7.18173 39.1171 7.53404 38.9852 7.77626 38.7212L12.07 34.4327C12.5765 33.9268 12.5765 33.0911 12.07 32.5633C11.5636 32.0575 10.7268 32.0575 10.1984 32.5633L5.90461 36.8739C5.39817 37.3797 5.39817 38.2154 5.90461 38.7432C6.16885 39.0072 6.49914 39.1391 6.82943 39.1391L6.85144 39.1171Z" fill="#00D8FF"/>
<path id="Vector_7" fill-rule="evenodd" clip-rule="evenodd" d="M16.0335 36.5C15.527 35.9941 14.6903 35.9941 14.1618 36.5L5.88258 44.7692C5.37614 45.2751 5.37614 46.1108 5.88258 46.6386C6.14681 46.9025 6.4771 47.0345 6.80739 47.0345C7.13768 47.0345 7.48999 46.9025 7.7322 46.6386L16.0115 38.3694C16.5179 37.8635 16.5179 37.0278 16.0115 36.5H16.0335Z" fill="#00D8FF"/>
<path id="Vector_8" fill-rule="evenodd" clip-rule="evenodd" d="M18.1033 40.4587L13.8095 44.7472C13.3031 45.2531 13.3031 46.0888 13.8095 46.6166C14.0738 46.8805 14.404 47.0125 14.7343 47.0125C15.0646 47.0125 15.4169 46.8805 15.6591 46.6166L19.9529 42.328C20.4594 41.8222 20.4594 40.9865 19.9529 40.4587C19.4465 39.9528 18.6097 39.9528 18.0813 40.4587H18.1033Z" fill="#00D8FF"/>
</g>
</g>
</svg>
