<svg width="50" height="51" viewBox="0 0 50 51" fill="none" xmlns="http://www.w3.org/2000/svg">
<g id="Icon">
<g id="Group">
<path id="Vector" fill-rule="evenodd" clip-rule="evenodd" d="M48.5001 25.4736C48.5001 23.523 47.0038 21.9239 45.1027 21.7306C44.5746 18.9365 43.4656 16.2654 41.8638 13.9106C42.4094 13.2429 42.7263 12.4169 42.7263 11.5383C42.7263 10.519 42.339 9.57011 41.6173 8.86719C40.2443 7.4965 38.0615 7.40863 36.5653 8.60359C34.2065 6.98688 31.5308 5.87979 28.732 5.37017C28.5207 3.47229 26.9365 1.99615 24.9825 1.99615C23.0286 1.99615 21.4268 3.48986 21.2331 5.38774C18.4343 5.89735 15.7586 7.02203 13.3998 8.62117C11.9036 7.42621 9.72081 7.4965 8.34778 8.88477C7.62606 9.60526 7.2388 10.5542 7.2388 11.5559C7.2388 12.2236 7.41483 12.8562 7.74928 13.4186C8.25977 13.2429 8.85827 13.155 9.50957 13.0671H9.6504C11.8684 12.7332 14.0511 12.8738 16.0227 13.4889C17.6245 13.9985 19.1032 14.8068 20.353 15.9315L24.296 17.3549C24.2608 17.5307 24.2432 17.724 24.2432 17.8997C24.6305 17.8997 25.0354 17.8821 25.4402 17.847L26.3028 17.7943C26.4788 17.7943 26.6724 17.7943 26.8837 17.7943C28.5031 17.847 29.841 18.5148 30.7915 19.3758C31.1436 19.6746 31.4428 20.026 31.6893 20.3951L36.178 22.4335C36.7589 22.1172 37.3574 21.836 38.0087 21.6076L31.7069 18.7432C31.7597 18.4796 31.8125 18.1984 31.8125 17.8997C31.8125 17.4779 31.7245 17.0913 31.6012 16.7223L36.1604 14.1215C36.1604 14.1215 36.2132 14.1918 36.2484 14.227C36.9877 14.965 37.9559 15.334 38.9241 15.334C39.5402 15.334 40.1387 15.1759 40.6844 14.8771C42.1102 16.9859 43.1136 19.3758 43.5888 21.8712C43.3424 21.9415 43.096 22.0469 42.8847 22.1699L42.9551 23.8745C43.5184 24.1381 44.0289 24.4544 44.5394 24.7707C44.7858 24.9289 45.0147 25.0695 45.2787 25.2101L48.2536 26.8092C48.412 26.3875 48.5001 25.9481 48.5001 25.4736ZM5.84817 18.1281C5.84817 19.2528 5.84817 20.3599 5.84817 21.4494V25.8251H5.83056C5.83056 26.036 5.84817 26.282 5.90098 26.5632C6.0418 27.4945 6.44667 28.215 7.02756 28.7598C6.81633 28.8828 6.56989 28.9707 6.34105 29.0409C6.81633 31.5363 7.81969 33.9263 9.24553 36.035C9.98485 35.6484 10.8298 35.5078 11.6571 35.6484L14.5264 27.0552L14.72 27.2661C15.0545 27.6175 15.3714 27.9514 15.7058 28.2677L13.0654 36.1932C13.2942 36.3337 13.5054 36.4919 13.6991 36.7028C13.9103 36.9136 14.0863 37.1597 14.2448 37.4057L22.4653 33.8032C22.6766 33.9438 22.8878 34.0844 23.1166 34.225C23.4159 34.4183 23.6975 34.6116 23.9792 34.8049L14.7729 38.8467C14.7905 39.0224 14.8257 39.2157 14.8257 39.409C14.8257 40.0416 14.6496 40.6391 14.368 41.1663C16.4803 42.5897 18.8743 43.5738 21.3739 44.0658C21.8492 42.5194 23.2751 41.3772 24.9825 41.3772C25.141 41.3772 25.2818 41.4123 25.4402 41.4299L27.1125 36.4216C27.4998 36.5622 27.8694 36.6852 27.9398 36.7555C28.0103 37.0191 28.1511 37.3178 28.3271 37.599L26.8837 41.9219C27.6934 42.3964 28.3095 43.152 28.6087 44.0834C31.1084 43.6089 33.5024 42.6073 35.6147 41.1839C35.3331 40.6391 35.157 40.0416 35.157 39.4266C35.157 39.0224 35.2274 38.6182 35.3683 38.2492C35.6675 37.9505 35.9492 37.5814 36.1956 37.1597C36.3364 36.9312 36.4421 36.7028 36.5653 36.4743L36.6005 36.5095C37.7975 35.5429 39.4169 35.4024 40.7372 36.1053C41.6173 34.8225 42.3214 33.4166 42.8495 31.9581C43.4656 31.7472 44.0817 31.5187 44.7154 31.1321C44.1169 33.2409 43.1664 35.2618 41.9166 37.0718C42.4622 37.7396 42.7791 38.5655 42.7791 39.4441C42.7791 40.4634 42.3918 41.4123 41.6701 42.1152C40.9484 42.8182 39.9626 43.2223 38.9945 43.2223C38.1495 43.2223 37.3222 42.9236 36.6181 42.3789C34.2593 43.9956 31.5836 45.1027 28.7848 45.6123C28.5735 47.5102 26.9893 49.0038 25.0354 49.0038C23.0814 49.0038 21.4796 47.5102 21.2859 45.6123C18.4871 45.0851 15.8114 43.978 13.4526 42.3789C12.7661 42.9412 11.9212 43.2223 11.0762 43.2223C10.1081 43.2223 9.13991 42.8533 8.40059 42.1152C7.67887 41.3947 7.29161 40.4458 7.29161 39.4441C7.29161 38.5655 7.60846 37.7572 8.13655 37.0718C6.51708 34.717 5.40809 32.0459 4.89761 29.2518C2.99649 29.041 1.50024 27.4594 1.50024 25.5088C1.50024 23.5582 2.99649 21.959 4.89761 21.7657C5.12645 20.5356 5.4609 19.3407 5.91858 18.1809L5.84817 18.1281ZM31.0556 34.102H31.0203L31.0908 34.1898L31.1436 34.225C31.1436 34.225 31.1084 34.1547 31.0556 34.102ZM31.0908 34.1898C31.0908 34.1898 31.1788 34.2953 31.1436 34.225L31.0908 34.1898ZM13.8927 19.1298C13.9983 19.1649 14.0863 19.1825 14.192 19.2177C15.1777 19.534 16.0579 20.0612 16.7092 20.8168C16.9908 21.1331 17.2725 21.4319 17.5541 21.6955C17.0436 21.344 16.4803 21.098 15.8818 20.9398C15.1601 20.7465 14.4032 20.7289 13.6639 20.8344C13.8751 20.5884 14.1039 20.3599 14.368 20.149L13.8927 19.1122V19.1298ZM20.2826 24.1557C19.9481 24.0327 19.5432 23.6109 19.1208 23.154C18.8743 22.8904 18.6279 22.6268 18.3462 22.3457C19.0328 22.8553 19.7193 23.2243 20.4058 23.4703C20.3882 23.6988 20.353 23.9272 20.2826 24.1557ZM28.5735 6.86387C31.0732 7.33834 33.4672 8.34001 35.5795 9.76342C35.2979 10.3082 35.1218 10.9057 35.1218 11.5207C35.1218 11.96 35.2098 12.3994 35.3507 12.8035L30.8267 15.3868C30.1226 14.596 29.1192 14.0864 27.9926 14.0864C27.9398 14.0864 27.887 14.0864 27.8342 14.0864L26.602 9.13079C27.5526 8.67389 28.2567 7.84795 28.5735 6.82872V6.86387ZM24.9649 9.55254C24.9649 9.55254 25.0706 9.55254 25.1234 9.55254L26.3556 14.5081C25.7043 14.8244 25.141 15.3165 24.7713 15.9315L14.72 12.2764C14.7728 12.0303 14.7905 11.8019 14.7905 11.5383C14.7905 10.9056 14.6144 10.3082 14.3328 9.78098C16.4451 8.35757 18.8391 7.37349 21.3387 6.88145C21.814 8.42787 23.2399 9.57011 24.9473 9.57011L24.9649 9.55254Z" fill="#00D8FF"/>
<path id="Vector_2" fill-rule="evenodd" clip-rule="evenodd" d="M9.96724 26.7564C10.4777 26.6686 11.129 27.1958 11.4107 26.0887C11.9212 24.1381 14.6672 23.031 16.1283 24.4017C17.5541 25.7372 18.5223 27.4242 20.8106 27.1958C20.9339 27.1958 21.1627 27.5297 21.2155 27.7406C21.9196 30.3941 24.3136 31.2376 26.2147 32.6961C27.6934 33.8384 30.193 33.522 30.8619 35.9647C30.9499 36.2634 32.5694 37.3178 33.5728 35.6132C34.7345 33.6275 34.0656 32.4501 31.7949 30.8334C34.5233 31.466 35.3507 30.0426 36.3364 28.8476C37.1638 27.8284 37.639 27.9866 38.4488 28.9355C38.748 29.287 39.2409 30.2711 40.1034 29.7614C41.2828 29.0585 42.8143 29.0937 43.8705 27.8636C42.7967 27.2836 41.8109 26.4402 40.7547 26.3347C40.2267 26.282 39.4873 26.9322 38.9769 26.2117C38.2727 25.1749 40.0154 25.1749 39.9626 24.1381C38.0263 24.6477 36.53 25.6318 35.157 26.8619C34.805 27.1782 34.1889 27.7757 34.1184 27.723C32.4286 26.3874 29.4537 26.4401 29.5593 23.0661C29.5945 22.2051 28.3447 20.6938 26.4612 20.7992C23.8383 20.9574 21.3035 21.467 18.9975 18.8486C16.8852 16.4587 13.5406 15.4922 10.0905 16.037C9.36874 16.1424 8.87585 16.16 8.87585 17.0913C8.91106 20.026 8.91106 22.9431 8.87585 25.8778C8.87585 26.6686 9.31593 26.8795 9.96724 26.774V26.7564Z" fill="white"/>
</g>
</g>
</svg>
