<svg width="50" height="50" viewBox="0 0 50 50" fill="none" xmlns="http://www.w3.org/2000/svg">
<g id="Icon">
<g id="Group">
<path id="Vector" fill-rule="evenodd" clip-rule="evenodd" d="M10.8936 21.576C15.6434 18.3408 19.2863 14.7461 22.1242 10.9717L34.0391 31.4614C29.3295 32.0006 24.3582 33.3585 19.1656 35.8149L10.8936 21.596V21.576Z" fill="white"/>
<path id="Vector_2" fill-rule="evenodd" clip-rule="evenodd" d="M3.32598 35.3955L4.33231 37.113C6.04307 40.0486 9.847 41.0471 12.7855 39.3696L17.1529 36.8733L8.96142 22.7942L4.59396 25.2905C1.63536 26.988 0.629021 30.7624 2.31965 33.6781L3.32598 35.3955Z" fill="#00D8FF"/>
<path id="Vector_3" fill-rule="evenodd" clip-rule="evenodd" d="M24.66 6.21878C23.5732 6.83786 23.1908 8.25576 23.8147 9.33416L36.3938 30.9421C37.0177 32.0205 38.4467 32.4 39.5336 31.7809C40.6204 31.1618 41.0028 29.7439 40.3789 28.6655L36.112 21.3164L36.6756 20.9969C38.6278 19.8785 39.292 17.3822 38.1649 15.4451C37.0379 13.508 34.522 12.8489 32.5698 13.9673L32.0062 14.2868L27.7998 7.05753C27.1758 5.97913 25.7469 5.5997 24.66 6.21878Z" fill="white"/>
<path id="Vector_4" fill-rule="evenodd" clip-rule="evenodd" d="M36.6555 4.90073C36.7963 4.28164 37.4001 3.90222 38.0039 4.02204C38.6077 4.14186 39.0103 4.76094 38.8895 5.36005L37.9838 9.61374C37.8429 10.2328 37.2391 10.6123 36.6353 10.4924C36.0114 10.3527 35.629 9.75354 35.7498 9.15443L36.6555 4.90073Z" fill="#00D8FF"/>
<path id="Vector_5" fill-rule="evenodd" clip-rule="evenodd" d="M42.9953 14.4466C42.4518 14.7661 41.7474 14.5664 41.4254 14.0272C41.1033 13.488 41.3046 12.7891 41.848 12.4695L45.6117 10.3127C46.1551 9.9932 46.8595 10.1929 47.1816 10.7321C47.5036 11.2713 47.3023 11.9703 46.7589 12.2898L42.9953 14.4466Z" fill="#00D8FF"/>
<path id="Vector_6" fill-rule="evenodd" clip-rule="evenodd" d="M47.7051 20.5376C48.3089 20.7373 48.631 21.3763 48.4498 21.9754C48.2486 22.5745 47.6045 22.8941 47.0007 22.7143L42.8345 21.3763C42.2307 21.1766 41.9087 20.5376 42.0898 19.9384C42.2911 19.3393 42.9352 19.0198 43.5389 19.1996L47.7051 20.5376Z" fill="#00D8FF"/>
<path id="Vector_7" fill-rule="evenodd" clip-rule="evenodd" d="M19.85 37.9917L24.4992 42.6049C25.0628 43.164 25.0628 44.0627 24.4992 44.6219L22.5872 46.519C22.0237 47.0782 21.118 47.0782 20.5544 46.519L14.8184 40.8275L19.2261 38.3112C19.4273 38.2114 19.6487 38.1115 19.85 38.0117V37.9917Z" fill="#00D8FF"/>
</g>
</g>
</svg>
