<svg width="50" height="50" viewBox="0 0 50 50" fill="none" xmlns="http://www.w3.org/2000/svg">
<g id="Icon">
<g id="Group">
<path id="Vector" fill-rule="evenodd" clip-rule="evenodd" d="M43.2626 37.5207H39.3211C36.899 37.5207 34.8952 39.522 34.8952 41.9412V43.5467H47.6884V41.9412C47.6884 39.522 45.7067 37.5207 43.2846 37.5207H43.2626Z" fill="white"/>
<path id="Vector_2" fill-rule="evenodd" clip-rule="evenodd" d="M10.3216 37.5207H6.38018C3.95805 37.5207 1.95428 39.522 1.95428 41.9412V43.5467H14.7475V41.9412C14.7475 39.522 12.7437 37.5207 10.3216 37.5207Z" fill="white"/>
<path id="Vector_3" fill-rule="evenodd" clip-rule="evenodd" d="M11.1804 36.2891C13.2282 36.597 14.9457 37.9825 15.6724 39.8959C16.3109 37.0148 18.7991 34.8156 21.7717 34.5517C18.9973 32.6383 18.6009 28.6576 21.0231 26.2604C23.1589 24.1271 26.594 24.1491 28.7078 26.2604V1.01282H19.5257C14.4833 1.01282 10.3437 5.14745 10.3437 10.1838V28.6796C13.3163 30.1311 13.8007 34.1998 11.1804 36.2891ZM33.442 15.3081C33.0897 15.3081 32.8034 15.0222 32.8034 14.6703C32.8034 14.3184 33.0897 14.0325 33.442 14.0325H35.9081C36.2604 14.0325 36.5467 14.3184 36.5467 14.6703C36.5467 15.0222 36.2604 15.3081 35.9081 15.3081H33.442ZM18.645 6.29107C18.2927 6.29107 18.0064 6.00516 18.0064 5.65328C18.0064 5.30139 18.2927 5.01549 18.645 5.01549H20.3625C20.7148 5.01549 21.0011 5.30139 21.0011 5.65328C21.0011 6.00516 20.7148 6.29107 20.3625 6.29107H18.645ZM23.4892 6.29107C23.1369 6.29107 22.8507 6.00516 22.8507 5.65328C22.8507 5.30139 23.1369 5.01549 23.4892 5.01549H25.2067C25.559 5.01549 25.8453 5.30139 25.8453 5.65328C25.8453 6.00516 25.559 6.29107 25.2067 6.29107H23.4892ZM18.645 10.8216C18.2927 10.8216 18.0064 10.5357 18.0064 10.1838C18.0064 9.83189 18.2927 9.54598 18.645 9.54598H20.3625C20.7148 9.54598 21.0011 9.83189 21.0011 10.1838C21.0011 10.5357 20.7148 10.8216 20.3625 10.8216H18.645ZM23.4892 10.8216C23.1369 10.8216 22.8507 10.5357 22.8507 10.1838C22.8507 9.83189 23.1369 9.54598 23.4892 9.54598H25.2067C25.559 9.54598 25.8453 9.83189 25.8453 10.1838C25.8453 10.5357 25.559 10.8216 25.2067 10.8216H23.4892ZM13.8227 10.8216C13.4704 10.8216 13.1842 10.5357 13.1842 10.1838C13.1842 9.83189 13.4704 9.54598 13.8227 9.54598H15.5403C15.8926 9.54598 16.1788 9.83189 16.1788 10.1838C16.1788 10.5357 15.8926 10.8216 15.5403 10.8216H13.8227ZM18.645 15.3521C18.2927 15.3521 18.0064 15.0661 18.0064 14.7143C18.0064 14.3624 18.2927 14.0765 18.645 14.0765H20.3625C20.7148 14.0765 21.0011 14.3624 21.0011 14.7143C21.0011 15.0661 20.7148 15.3521 20.3625 15.3521H18.645ZM23.4892 15.3521C23.1369 15.3521 22.8507 15.0661 22.8507 14.7143C22.8507 14.3624 23.1369 14.0765 23.4892 14.0765H25.2067C25.559 14.0765 25.8453 14.3624 25.8453 14.7143C25.8453 15.0661 25.559 15.3521 25.2067 15.3521H23.4892ZM13.8227 15.3521C13.4704 15.3521 13.1842 15.0661 13.1842 14.7143C13.1842 14.3624 13.4704 14.0765 13.8227 14.0765H15.5403C15.8926 14.0765 16.1788 14.3624 16.1788 14.7143C16.1788 15.0661 15.8926 15.3521 15.5403 15.3521H13.8227ZM18.645 19.8826C18.2927 19.8826 18.0064 19.5966 18.0064 19.2448C18.0064 18.8929 18.2927 18.607 18.645 18.607H20.3625C20.7148 18.607 21.0011 18.8929 21.0011 19.2448C21.0011 19.5966 20.7148 19.8826 20.3625 19.8826H18.645ZM23.4892 19.8826C23.1369 19.8826 22.8507 19.5966 22.8507 19.2448C22.8507 18.8929 23.1369 18.607 23.4892 18.607H25.2067C25.559 18.607 25.8453 18.8929 25.8453 19.2448C25.8453 19.5966 25.559 19.8826 25.2067 19.8826H23.4892ZM13.8227 19.8826C13.4704 19.8826 13.1842 19.5966 13.1842 19.2448C13.1842 18.8929 13.4704 18.607 13.8227 18.607H15.5403C15.8926 18.607 16.1788 18.8929 16.1788 19.2448C16.1788 19.5966 15.8926 19.8826 15.5403 19.8826H13.8227ZM13.8227 24.413C13.4704 24.413 13.1842 24.1271 13.1842 23.7753C13.1842 23.4234 13.4704 23.1375 13.8227 23.1375H15.5403C15.8926 23.1375 16.1788 23.4234 16.1788 23.7753C16.1788 24.1271 15.8926 24.413 15.5403 24.413H13.8227ZM13.8227 28.9435C13.4704 28.9435 13.1842 28.6576 13.1842 28.3057C13.1842 27.9539 13.4704 27.668 13.8227 27.668H15.5403C15.8926 27.668 16.1788 27.9539 16.1788 28.3057C16.1788 28.6576 15.8926 28.9435 15.5403 28.9435H13.8227ZM33.442 19.8166C33.0897 19.8166 32.8034 19.5307 32.8034 19.1788C32.8034 18.8269 33.0897 18.541 33.442 18.541H35.9081C36.2604 18.541 36.5467 18.8269 36.5467 19.1788C36.5467 19.5307 36.2604 19.8166 35.9081 19.8166H33.442ZM34.4108 24.3691C34.0585 24.3691 33.7723 24.0832 33.7723 23.7313C33.7723 23.3794 34.0585 23.0935 34.4108 23.0935H35.9081C36.2604 23.0935 36.5467 23.3794 36.5467 23.7313C36.5467 24.0832 36.2604 24.3691 35.9081 24.3691H34.4108ZM34.0145 39.8299C33.3759 36.9489 30.9098 34.7716 27.9151 34.4857C30.051 33.0342 30.8657 30.2631 29.8308 27.8879C29.9409 27.7779 30.007 27.624 30.007 27.448V11.1295H39.3652V28.6576C36.3705 30.0872 35.9081 34.1558 38.5064 36.2451C36.4586 36.553 34.7411 37.9385 34.0145 39.8519V39.8299Z" fill="#00D8FF"/>
<path id="Vector_4" fill-rule="evenodd" clip-rule="evenodd" d="M8.36192 29.5373C6.57835 29.5373 5.14709 30.9888 5.14709 32.7483C5.14709 34.5077 6.60037 35.9592 8.36192 35.9592C10.1235 35.9592 11.5768 34.5077 11.5768 32.7483C11.5768 30.9888 10.1455 29.5373 8.36192 29.5373Z" fill="white"/>
<path id="Vector_5" fill-rule="evenodd" clip-rule="evenodd" d="M24.8324 25.9525C22.5644 25.9525 20.7148 27.7999 20.7148 30.0652C20.7148 32.3304 22.5644 34.1778 24.8324 34.1778C27.1004 34.1778 28.95 32.3304 28.95 30.0652C28.95 27.7999 27.1004 25.9525 24.8324 25.9525Z" fill="white"/>
<path id="Vector_6" fill-rule="evenodd" clip-rule="evenodd" d="M27.2545 35.8053H22.3883C19.3055 35.8053 16.7733 38.3344 16.7733 41.4134V43.5467H32.8474V41.4134C32.8474 38.3344 30.3372 35.8053 27.2545 35.8053Z" fill="white"/>
<path id="Vector_7" fill-rule="evenodd" clip-rule="evenodd" d="M41.3029 29.5373C39.5193 29.5373 38.088 30.9888 38.088 32.7483C38.088 34.5077 39.5413 35.9592 41.3029 35.9592C43.0644 35.9592 44.5177 34.5077 44.5177 32.7483C44.5177 30.9888 43.0644 29.5373 41.3029 29.5373Z" fill="white"/>
<path id="Vector_8" d="M49.5381 44.8223H0.126709V48.9349H49.5381V44.8223Z" fill="white"/>
</g>
</g>
</svg>
